<?xml version="1.0" encoding="utf-8"?>
<!-- Generator: Adobe Illustrator 21.0.0, SVG Export Plug-In . SVG Version: 6.00 Build 0)  -->
<svg version="1.1" id="图层_1" xmlns="http://www.w3.org/2000/svg" xmlns:xlink="http://www.w3.org/1999/xlink" x="0px" y="0px"
	 viewBox="0 0 56 56" enable-background="new 0 0 56 56" xml:space="preserve">
<circle fill="#D6D6D6" cx="27.9" cy="27.8" r="28"/>
<g>
	<defs>
		<circle id="SVGID_1_" cx="27.9" cy="27.8" r="28"/>
	</defs>
	<clipPath id="SVGID_2_">
		<use xlink:href="#SVGID_1_"  overflow="visible"/>
	</clipPath>
	<g clip-path="url(#SVGID_2_)">
		<rect x="23.6" y="32.3" fill="#EFC9A3" width="8.3" height="5.2"/>
		<polygon fill="#ABE2F9" points="23.6,37 27.7,54.2 30.8,40.6 27.7,37.1 		"/>
		<polygon fill="#C3EAFB" points="22.9,33.7 27.7,37.1 24.6,41 		"/>
		<polygon fill="#C3EAFB" points="32.4,33.9 27.7,37.1 30.7,41 		"/>
		<polygon fill="#0074A3" points="26.1,39.1 26.9,40.3 26,46.3 27.7,53.5 29.5,46.1 28.8,39.9 29.2,39.1 		"/>
		<polygon fill="#008EBA" points="27.7,37.1 26.1,39.1 27.7,40.3 29.2,39.1 		"/>
		<path fill="#FFFFFF" d="M23.4,36c0,0-6.8,2.3-9.1,3.3c-1.9,0.8-3.3,1.6-4.2,7.8c-0.4,3-0.7,18.7-0.7,18.7h6.2l0-12.6l1.2,12.6
			h10.8l0-12.4L23.4,36z"/>
		<path fill="#FFFFFF" d="M31.9,36c0,0,6.9,2.3,9.1,3.3c1.9,0.8,3.3,1.6,4.2,7.8c0.4,3,0.7,18.7,0.7,18.7h-6.2l0-12.6l-1.3,12.6
			H27.6l0.1-12.4L31.9,36z"/>
		<polygon fill="#E2E2E2" points="22,36.4 20.5,41.4 22,41.9 19.9,44.4 27.7,53.5 		"/>
		<polygon fill="#E2E2E2" points="33.4,36.4 34.9,41.4 33.4,41.9 35.4,44.4 27.6,53.5 		"/>
		<polygon fill="#F2F2F2" points="22,36.4 20.7,40.8 23,41.5 20.7,44.2 27.7,53.5 23.4,36 		"/>
		<polygon fill="#F2F2F2" points="33.4,36.4 34.7,40.8 32.5,41.5 34.7,44.2 27.7,53.5 31.9,36 		"/>
		<polygon fill="#E2E2E2" points="27.7,53.3 27.7,65.7 27.2,65.7 		"/>
		<g>
			<g>
				<path fill="#8E8E8E" d="M34.8,41.9c-0.7-3.7-2.2-5.7-2.2-5.8l1.6,0.4c0.1,0.1,1,1.4,1.8,5.1L34.8,41.9z"/>
			</g>
			<path fill="#8E8E8E" d="M38.7,53.4c0,0.3-0.3,0.5-0.8,0.4c-0.5-0.1-1.2-0.4-1.2-0.7c0-0.3,0.8-0.4,1.3-0.4S38.8,53.1,38.7,53.4z"
				/>
			<path fill="none" stroke="#8E8E8E" stroke-linecap="round" stroke-miterlimit="10" d="M32.6,45.3c0,0,0.1-3.5,2.8-3.5
				c2.5,0,2.5,3.8,2.5,3.8"/>
			<path fill="none" stroke="#8E8E8E" stroke-width="0.5" stroke-miterlimit="10" d="M32.6,45c0,0-0.4,6.6,4.6,8.1"/>
			<path fill="#8E8E8E" d="M31.7,53.4c0,0.3,0.3,0.5,0.8,0.4c0.5-0.1,1.2-0.4,1.2-0.7c0-0.3-0.8-0.4-1.3-0.4
				C31.8,52.8,31.7,53.1,31.7,53.4z"/>
			<path fill="none" stroke="#8E8E8E" stroke-width="0.5" stroke-miterlimit="10" d="M37.9,45c0,0,0.4,6.6-4.6,8.1"/>
		</g>
		<g>
			<path fill="#8E8E8E" d="M18.9,47.3c-0.3-7.8,1.7-10.5,1.8-10.6l1.3-0.3c-0.3,0.4-2.2,3.1-1.9,10.9L18.9,47.3z"/>
		</g>
		<circle fill="#F2F2F2" stroke="#8E8E8E" stroke-width="0.75" stroke-miterlimit="10" cx="19.5" cy="47.3" r="2.1"/>
		<circle fill="#8E8E8E" cx="19.5" cy="47.3" r="0.9"/>
		<polygon fill="#EDBD98" points="23.7,34.3 28.7,36.4 32.6,34.3 		"/>
		<g>
			<path fill="#EFC9A3" d="M18.4,25.9c0.6,0.8,0.4,1.6,0,2c-0.4,0.4-1.2-0.1-1.8-0.9c-0.6-0.8-0.5-1.4-0.1-1.7
				C17,24.9,17.8,25.2,18.4,25.9z"/>
			<path fill="#EFC9A3" d="M37.9,25.9c-0.6,0.8-0.4,1.6,0,2c0.4,0.4,1.2-0.1,1.8-0.9c0.6-0.8,0.5-1.4,0.1-1.7S38.5,25.2,37.9,25.9z"
				/>
			<path fill="#FFDDB4" d="M39.2,21.7c0,7.6-5,13.7-11.1,13.7S17,29.3,17,21.7s5-11.3,11.2-11.3S39.2,14.2,39.2,21.7z"/>
			<path fill="#EA8E75" d="M23.9,29.8c-0.2-0.3,0.1-0.7,0.4-0.6c0.7,0.2,1.9,0.5,3.3,0.5c1.2,0,2.6-0.3,3.4-0.5
				c0.3-0.1,0.6,0.3,0.4,0.6c-0.5,1-1.3,2.5-3.8,2.5C25.6,32.3,24.5,30.8,23.9,29.8z"/>
			<path fill="#F9A695" d="M27.7,30.7c-1.1,0-1.9,0.3-2.4,0.7c0.6,0.5,1.4,0.8,2.4,0.8c1.1,0,1.9-0.3,2.4-0.7
				C29.5,31.1,28.7,30.7,27.7,30.7z"/>
			<path fill="#430901" d="M18.7,27.4c0,0-4.5-4.8-1.2-12.5c0,0-0.6,0-0.9-1.2c0,0,1.5,0.2,2.4-0.4c0,0-1.4-1.2-1.5-1.9
				c0,0,2.7,0.5,5.5-1.8c0,0,2.1-1.4,3.8-0.6c0,0-0.8-0.6-0.4-1.8c0,0,1.8,1.5,4.2,1.3c0,0,4.5-0.1,6.1,3.1c0,0,1.3,0.7,2.1-0.2
				c0,0,0.1,1.1-1.3,1.4c0,0,4.2,3.2,1.7,12.6c0,0-0.6,1.1-1.7,1.8c0,0,1.5-1.8,0.6-4.8c0,0-1.3-1.8-1.4-3.4c0-1.7-0.4-4.8-4.3-4
				c-3.9,0.8-2.9,2.8-9.2,1.6c0,0-2.5-1.3-3.9,0.7c0,0-0.4,1.4-0.3,2.9c0,0,0,0.6-0.8,1.4C18.2,21.5,17,24.1,18.7,27.4z"/>
			<ellipse fill="#430901" cx="23.6" cy="23.9" rx="0.6" ry="0.6"/>
			<ellipse fill="#FFCAB8" cx="22.1" cy="25.9" rx="1" ry="0.6"/>
			<ellipse fill="#FFCAB8" cx="33.8" cy="25.9" rx="1" ry="0.6"/>
			<ellipse fill="#430901" cx="32.4" cy="23.9" rx="0.6" ry="0.6"/>
			<path fill="#430901" d="M22.4,21.5c0,0,1.2-0.5,2,0.2C24.4,21.7,23.8,20.4,22.4,21.5z"/>
			<path fill="#430901" d="M33.8,21.5c0,0-1.2-0.5-2,0.2C31.8,21.8,32.3,20.4,33.8,21.5z"/>
			<path fill="#FFF1EE" d="M27.7,29.7c-1.2,0-2.3-0.2-3.1-0.4c0.1,0.3,0.2,0.7,0.5,0.8c0.4,0.2,3,1,5.4-0.2c0.2-0.1,0.4-0.3,0.5-0.6
				C30.1,29.4,28.9,29.7,27.7,29.7z"/>
		</g>
		<polygon fill="#7DD1EF" points="24.6,41 27.7,37.1 24.8,41.4 		"/>
		<polygon fill="#7DD1EF" points="30.7,41 27.7,37.1 30.6,41.4 		"/>
	</g>
</g>
</svg>
