<?xml version="1.0" encoding="utf-8"?>
<!-- Generator: Adobe Illustrator 21.0.0, SVG Export Plug-In . SVG Version: 6.00 Build 0)  -->
<svg version="1.1" id="图层_1" xmlns="http://www.w3.org/2000/svg" xmlns:xlink="http://www.w3.org/1999/xlink" x="0px" y="0px"
	 viewBox="0 0 90 90" enable-background="new 0 0 90 90" xml:space="preserve">
<circle fill="#F4F4F4" cx="45.4" cy="45" r="42.7"/>
<g>
	<defs>
		<circle id="SVGID_1_" cx="45.4" cy="45" r="42.7"/>
	</defs>
	<clipPath id="SVGID_2_">
		<use xlink:href="#SVGID_1_"  overflow="visible"/>
	</clipPath>
	<g clip-path="url(#SVGID_2_)">
		<path fill="#FCD2A9" d="M34.9,49.7v7.8c0,0.6-0.4,1.2-1,1.4c-3,0.9-11.8,3.7-17.8,7.1c-2.9,1.6-4.6,4.6-4.6,7.8v15H76V74
			c0-3.2-1.7-6.1-4.4-7.7c-3.7-2.1-9.5-5-16.9-6.9c-0.7-0.2-1.1-0.7-1.1-1.4v-8.4H34.9z"/>
		<path fill="#EDBD98" d="M34.9,49.7c0,0,3.2,7.7,18.6,8.4V47.9L34.9,49.7z"/>
		
			<ellipse transform="matrix(0.9975 -7.040169e-02 7.040169e-02 0.9975 -2.7496 2.4516)" fill="#FCD2A9" cx="33.4" cy="40.2" rx="3.5" ry="5.6"/>
		<ellipse transform="matrix(0.1339 -0.991 0.991 0.1339 8.492 89.4824)" fill="#FCD2A9" cx="55.4" cy="39.9" rx="5.6" ry="3.5"/>
		<path fill="#FFDDB4" d="M56.5,38.8c0,9.3-7,16.8-12.2,16.8c-6.8,0-12.2-7.5-12.2-16.8S37.5,22,44.2,22S56.5,29.6,56.5,38.8z"/>
		<path fill="#562F14" d="M32,38.8c0,0-4.2-4.9,1.4-15.4c0,0,2.1-3.5,2.1-5.6c0,0,1.4,1.3,2.1,2.7c0,0,0-2-0.7-3.4
			c0,0,4.4-0.7,6.4,2.7c0,0,0.9-1.4-0.1-3.4c0,0,14.6,2.1,14.7,18.7c0,0.1-0.1,0.2-0.2,0.3c-0.6,0.2-2.6,1.1-2.6,3.4l-0.9-6.1
			c-0.3-1.8-1.8-3.2-3.6-3.4l-13-1.5c-1.3-0.2-2.6,0.5-3.2,1.7C33.5,31.2,32.4,34.2,32,38.8z"/>
		<path fill="#6DB3FD" d="M57.4,60.2c-2.7,5-7.8,8.3-13.7,8.3c-5.9,0-11-3.4-13.7-8.4c-4,1.4-9.8,3.5-14.1,5.9
			c-2.8,1.6-4.5,4.5-4.5,7.7v15H76V74c0-3.2-1.7-6.1-4.5-7.7C68.3,64.4,63.4,62,57.4,60.2z"/>
		<path fill="#4BA7F9" d="M43.7,69.7c6.9,0,12.1-4.8,13.7-9.5c-0.3-0.1,0.4,0.1,0,0c-2.7,5-7.8,8.3-13.7,8.3c-5.9,0-11-3.4-13.7-8.4
			c-0.3,0.1,0.4-0.1,0,0C32,65.3,36.6,69.7,43.7,69.7z"/>
	</g>
</g>
</svg>
