<?xml version="1.0" encoding="utf-8"?>
<!-- Generator: Adobe Illustrator 21.0.0, SVG Export Plug-In . SVG Version: 6.00 Build 0)  -->
<svg version="1.1" id="图层_1" xmlns="http://www.w3.org/2000/svg" xmlns:xlink="http://www.w3.org/1999/xlink" x="0px" y="0px"
	 viewBox="0 0 24 24" style="enable-background:new 0 0 24 24;" xml:space="preserve">
<style type="text/css">
	.st0{fill:#FFFFFF;}
</style>
<g>
	<g>
		<path class="st0" d="M11.5,1L3.4,2.4C3.2,2.5,3,2.7,3,2.9v18.3c0,0.2,0.2,0.4,0.4,0.5l8.1,1.3c0.3,0,0.6-0.2,0.6-0.5V1.5
			C12.1,1.2,11.8,1,11.5,1z M20.3,15.2h-1.3c-0.1,0-0.2,0.1-0.2,0.2v3.9c0,0.1-0.1,0.2-0.2,0.2h-5.5c-0.1,0-0.2,0.1-0.2,0.2v1.2
			c0,0.1,0.1,0.2,0.2,0.2h7.2c0.1,0,0.2-0.1,0.2-0.2v-5.5C20.6,15.3,20.4,15.2,20.3,15.2z M13.1,4.5h5.5c0.1,0,0.2,0.1,0.2,0.2v3.9
			c0,0.1,0.1,0.2,0.2,0.2h1.3c0.1,0,0.2-0.1,0.2-0.2V3.1c0-0.1-0.1-0.2-0.2-0.2h-7.2c-0.1,0-0.2,0.1-0.2,0.2v1.2
			C12.8,4.4,12.9,4.5,13.1,4.5z M20.8,10.5h-3.6c-0.1,0-0.2-0.1-0.2-0.2V8.8c0-0.2-0.2-0.3-0.4-0.2l-3.7,3.2c-0.1,0.1-0.1,0.2,0,0.3
			l3.7,3.2c0.1,0.1,0.4,0,0.4-0.2v-1.5c0-0.1,0.1-0.2,0.2-0.2h3.6c0.1,0,0.2-0.1,0.2-0.2v-2.5C21,10.6,20.9,10.5,20.8,10.5z"/>
	</g>
</g>
</svg>
